<svg width="512" height="512" viewBox="0 0 512 512" fill="none" xmlns="http://www.w3.org/2000/svg">
  <defs>
    <linearGradient id="bg" x1="0" y1="0" x2="0" y2="512" gradientUnits="userSpaceOnUse">
      <stop offset="0" stop-color="#3b82f6"/>
      <stop offset="1" stop-color="#2563eb"/>
    </linearGradient>
  </defs>
  <!-- Rounded tile -->
  <rect width="512" height="512" rx="116" fill="url(#bg)"/>
  <!-- Open book -->
  <path d="M256 168c-30-26-72-34-112-30-13 1-22 12-22 25v150c0 14 12 25 26 24 35-3 73 4 100 27 27-23 65-30 100-27 14 1 26-10 26-24V163c0-13-9-24-22-25-40-4-82 4-112 30Z" fill="#ffffff" fill-opacity="0.18"/>
  <path d="M256 168v228" stroke="#ffffff" stroke-opacity="0.35" stroke-width="12" stroke-linecap="round"/>
  <!-- Play button -->
  <circle cx="256" cy="262" r="76" fill="#ffffff"/>
  <path d="M236 228l52 34-52 34v-68Z" fill="#2563eb"/>
</svg>
